<svg width="30" height="30" viewBox="0 0 30 30" fill="none" xmlns="http://www.w3.org/2000/svg">
<path d="M12.285 6.25H25C25.663 6.25 26.2989 6.51339 26.7678 6.98223C27.2366 7.45107 27.5 8.08696 27.5 8.75V21.25C27.5 21.913 27.2366 22.5489 26.7678 23.0178C26.2989 23.4866 25.663 23.75 25 23.75H12.285C11.622 23.7499 10.9862 23.4864 10.5175 23.0175L3.38374 15.8837C3.14941 15.6493 3.01776 15.3315 3.01776 15C3.01776 14.6685 3.14941 14.3507 3.38374 14.1163L10.5175 6.9825C10.9862 6.51363 11.622 6.25014 12.285 6.25ZM12.285 21.25H25V8.75H12.285L6.03499 15L12.285 21.25ZM20.5175 15L22.285 16.7675C22.5127 17.0033 22.6387 17.319 22.6358 17.6468C22.633 17.9745 22.5015 18.288 22.2698 18.5198C22.038 18.7515 21.7245 18.883 21.3967 18.8858C21.069 18.8887 20.7532 18.7627 20.5175 18.535L18.75 16.7675L16.9825 18.535C16.8672 18.6544 16.7293 18.7496 16.5767 18.8151C16.4242 18.8806 16.2602 18.9151 16.0942 18.9166C15.9283 18.918 15.7637 18.8864 15.6101 18.8235C15.4564 18.7607 15.3169 18.6679 15.1995 18.5505C15.0821 18.4331 14.9893 18.2936 14.9265 18.1399C14.8636 17.9863 14.832 17.8217 14.8334 17.6557C14.8349 17.4898 14.8694 17.3257 14.9349 17.1732C15.0004 17.0207 15.0956 16.8828 15.215 16.7675L16.9825 15L15.215 13.2325C15.0956 13.1172 15.0004 12.9793 14.9349 12.8268C14.8694 12.6743 14.8349 12.5102 14.8334 12.3443C14.832 12.1783 14.8636 12.0137 14.9265 11.8601C14.9893 11.7064 15.0821 11.5669 15.1995 11.4495C15.3169 11.3321 15.4564 11.2393 15.6101 11.1765C15.7637 11.1136 15.9283 11.082 16.0942 11.0834C16.2602 11.0849 16.4242 11.1194 16.5767 11.1849C16.7293 11.2504 16.8672 11.3456 16.9825 11.465L18.75 13.2325L20.5175 11.465C20.6328 11.3456 20.7707 11.2504 20.9232 11.1849C21.0757 11.1194 21.2398 11.0849 21.4057 11.0834C21.5717 11.082 21.7363 11.1136 21.8899 11.1765C22.0436 11.2393 22.1831 11.3321 22.3005 11.4495C22.4179 11.5669 22.5107 11.7064 22.5735 11.8601C22.6364 12.0137 22.668 12.1783 22.6666 12.3443C22.6651 12.5102 22.6306 12.6743 22.5651 12.8268C22.4996 12.9793 22.4044 13.1172 22.285 13.2325L20.5175 15Z" fill="black"/>
</svg>
