<svg width="30" height="30" viewBox="0 0 30 30" fill="none" xmlns="http://www.w3.org/2000/svg">
<g clip-path="url(#clip0_50_161)">
<path d="M16.25 3.75C16.5686 3.75035 16.875 3.87235 17.1067 4.09106C17.3384 4.30977 17.4778 4.60869 17.4965 4.92674C17.5151 5.2448 17.4117 5.55797 17.2072 5.80229C17.0027 6.04661 16.7126 6.20362 16.3962 6.24125L16.25 6.25H6.25V23.75H23.75V13.75C23.7504 13.4314 23.8723 13.125 24.0911 12.8933C24.3098 12.6616 24.6087 12.5222 24.9267 12.5035C25.2448 12.4849 25.558 12.5883 25.8023 12.7928C26.0466 12.9973 26.2036 13.2874 26.2413 13.6038L26.25 13.75V23.75C26.2502 24.3807 26.012 24.9882 25.5831 25.4507C25.1543 25.9132 24.5664 26.1964 23.9375 26.2438L23.75 26.25H6.25C5.61928 26.2502 5.01179 26.012 4.54932 25.5831C4.08684 25.1543 3.80355 24.5664 3.75625 23.9375L3.75 23.75V6.25C3.7498 5.61928 3.98801 5.01179 4.41687 4.54931C4.84573 4.08684 5.43356 3.80355 6.0625 3.75625L6.25 3.75H16.25ZM24.0538 4.17875C24.2787 3.95457 24.5805 3.82441 24.898 3.81471C25.2154 3.80502 25.5246 3.91652 25.7628 4.12656C26.0011 4.3366 26.1504 4.62944 26.1805 4.94559C26.2106 5.26175 26.1193 5.57751 25.925 5.82875L25.8212 5.9475L13.4462 18.3212C13.2213 18.5454 12.9195 18.6756 12.602 18.6853C12.2846 18.695 11.9754 18.5835 11.7372 18.3734C11.4989 18.1634 11.3496 17.8706 11.3195 17.5544C11.2894 17.2383 11.3807 16.9225 11.575 16.6712L11.6788 16.5538L24.0538 4.17875Z" fill="black"/>
</g>
<defs>
<clipPath id="clip0_50_161">
<rect width="30" height="30" fill="white"/>
</clipPath>
</defs>
</svg>
