<svg width="30" height="30" viewBox="0 0 30 30" fill="none" xmlns="http://www.w3.org/2000/svg">
<path d="M29.0062 14.6812C27.9036 11.829 25.9894 9.36245 23.5001 7.58633C21.0109 5.81021 18.0558 4.80241 15 4.6875C11.9442 4.80241 8.98911 5.81021 6.49987 7.58633C4.01064 9.36245 2.0964 11.829 0.993748 14.6812C0.91928 14.8872 0.91928 15.1128 0.993748 15.3188C2.0964 18.171 4.01064 20.6375 6.49987 22.4137C8.98911 24.1898 11.9442 25.1976 15 25.3125C18.0558 25.1976 21.0109 24.1898 23.5001 22.4137C25.9894 20.6375 27.9036 18.171 29.0062 15.3188C29.0807 15.1128 29.0807 14.8872 29.0062 14.6812ZM15 23.4375C10.0312 23.4375 4.78125 19.7531 2.87812 15C4.78125 10.2469 10.0312 6.5625 15 6.5625C19.9687 6.5625 25.2187 10.2469 27.1219 15C25.2187 19.7531 19.9687 23.4375 15 23.4375Z" fill="black"/>
<path d="M15 9.375C13.8875 9.375 12.7999 9.7049 11.8749 10.323C10.9499 10.9411 10.2289 11.8196 9.80318 12.8474C9.37744 13.8752 9.26604 15.0062 9.48309 16.0974C9.70013 17.1885 10.2359 18.1908 11.0225 18.9775C11.8092 19.7641 12.8115 20.2999 13.9026 20.5169C14.9938 20.734 16.1248 20.6226 17.1526 20.1968C18.1804 19.7711 19.0589 19.0501 19.677 18.1251C20.2951 17.2001 20.625 16.1125 20.625 15C20.625 13.5082 20.0324 12.0774 18.9775 11.0225C17.9226 9.96763 16.4918 9.375 15 9.375ZM15 18.75C14.2583 18.75 13.5333 18.5301 12.9166 18.118C12.2999 17.706 11.8193 17.1203 11.5355 16.4351C11.2516 15.7498 11.1774 14.9958 11.3221 14.2684C11.4668 13.541 11.8239 12.8728 12.3484 12.3483C12.8728 11.8239 13.541 11.4667 14.2684 11.3221C14.9958 11.1774 15.7498 11.2516 16.4351 11.5355C17.1203 11.8193 17.706 12.2999 18.118 12.9166C18.5301 13.5333 18.75 14.2583 18.75 15C18.75 15.9946 18.3549 16.9484 17.6517 17.6516C16.9484 18.3549 15.9946 18.75 15 18.75Z" fill="black"/>
</svg>
